<?xml version="1.0" encoding="UTF-8" standalone="no"?>
<svg
   version="1.1"
   width="500"
   height="573.72369"
   id="svg600"
   xmlns="http://www.w3.org/2000/svg"
   xmlns:svg="http://www.w3.org/2000/svg">
  <defs
     id="defs600" />
  <path
     id="path2"
     style="stroke-width:0.979476"
     d="M 249.57617 0.001953125 C 247.34865 0.036154315 245.90188 0.8803385 243.68359 2.3320312 C 242.24235 3.2970066 240.7667 4.2133522 239.27344 5.0957031 C 237.92334 5.8743672 237.92298 5.8734738 236.59961 6.6367188 C 227.91069 11.719599 219.22242 16.801658 210.48047 21.792969 C 194.7373 30.76503 179.02721 39.796628 163.38477 48.943359 C 153.92842 54.474592 144.44388 59.950937 134.92578 65.375 C 126.12442 70.390025 117.34799 75.442786 108.60352 80.556641 C 102.70004 84.010479 96.795106 87.460741 90.849609 90.841797 C 85.784055 93.722332 80.747943 96.649601 75.716797 99.589844 C 67.09215 104.63267 58.455832 109.6509 49.773438 114.59375 C 43.725566 118.03609 37.700965 121.51723 31.712891 125.0625 C 26.018755 128.43771 20.279613 131.72797 14.515625 134.98242 C 13.481524 135.56534 12.478298 136.1315 11.474609 136.69727 C 8.5408175 138.35315 5.6063158 140.00931 2.671875 141.66406 C 2.0143333 142.03472 1.3764783 142.39416 0.73828125 142.75391 C 0.60699311 178.515 0.50232939 214.27582 0.44140625 250.03711 L 0.44140625 250.03906 C 0.43406129 254.34833 0.42775667 258.65753 0.41992188 262.9668 L 0.41992188 262.96875 C 0.41796575 263.85321 0.41602003 264.71183 0.4140625 265.57031 L 0.4140625 265.57227 C 0.38903654 279.51198 0.34888845 293.45293 0.29492188 307.39258 C 0.23937578 321.74229 0.2003311 336.09159 0.1875 350.44141 C 0.1801539 359.28633 0.164888 368.1298 0.1171875 376.97461 L 0.1171875 376.97656 C 0.084185799 383.09339 0.065421288 389.21123 0.068359375 395.32812 C 0.072767015 398.85881 0.08005592 402.3893 0.0546875 405.91992 C 0.02520528 409.19485 0.00778919 412.46701 0.015625 415.74219 L 0.015625 415.74414 C 0.022959036 417.54581 0.023418482 417.54845 0.03125 419.31641 C -0.00185628 421.45752 -0.011108865 423.599 0.013671875 425.74023 C 0.15239993 427.80545 0.2386497 428.96262 0.69140625 429.9707 L 0.69140625 429.97266 C 1.1443101 430.98006 1.9647578 431.83925 3.5722656 433.30469 C 5.1084166 433.97809 5.1094961 433.97859 6.6152344 434.63867 C 7.8081085 435.34368 7.8072533 435.34216 8.9765625 436.0332 L 11.289062 437.32422 C 12.192025 437.83033 13.068909 438.32126 13.945312 438.8125 C 22.031014 443.32527 30.081358 447.89445 38.076172 452.56641 C 45.505447 456.91817 52.935868 461.26343 60.416016 465.52734 C 69.675862 470.79758 78.896937 476.13165 88.095703 481.50781 C 95.680362 485.94083 103.27749 490.35251 110.88281 494.75 C 113.09916 496.03118 115.31592 497.31275 117.53125 498.5957 C 129.28169 505.4041 141.04062 512.19564 152.80469 518.98047 C 159.25204 522.6987 165.69985 526.41724 172.14648 530.13672 C 177.49858 533.22518 182.85056 536.31418 188.20508 539.39844 C 190.42973 540.6795 192.65447 541.96075 194.87891 543.24219 C 195.99587 543.8858 197.07995 544.5101 198.16406 545.13477 C 203.77425 548.36687 209.38391 551.59742 214.95508 554.89648 C 221.55661 558.81309 228.18149 562.68051 234.87891 566.43164 C 235.77895 566.93344 236.65182 567.42116 237.52539 567.9082 C 238.79458 568.62455 238.795 568.624 240.03906 569.32617 L 242.4082 570.63672 C 245.41185 572.31019 248.03757 573.38223 251.48438 573.72461 C 253.05757 572.67581 254.64033 571.63783 256.27148 570.68164 C 256.98931 570.27479 257.68608 569.87925 258.38281 569.48438 C 259.60273 568.79084 259.60111 568.79112 260.79688 568.11133 C 268.45749 563.76426 276.0956 559.3791 283.69727 554.92969 C 291.5739 550.31535 299.46361 545.73326 307.41797 541.25391 C 314.49137 537.27789 321.55703 533.30618 328.49414 529.0957 C 340.97862 521.68797 340.97841 521.68871 353.60352 514.52148 C 355.18373 513.62322 356.76388 512.72353 358.34375 511.82422 C 360.07495 510.84772 361.80447 509.86756 363.53125 508.88281 C 364.39868 508.3871 365.24011 507.90691 366.08203 507.42578 C 369.60441 505.41535 373.11879 503.39345 376.62305 501.35352 C 379.68738 499.57459 382.74545 497.78425 385.79492 495.97852 C 386.52457 495.54327 387.25372 495.10827 387.98438 494.67578 C 392.48922 492.05998 397.03007 489.55202 401.74414 487.27734 C 402.27359 487.03017 402.78885 486.79068 403.30273 486.55078 L 402.8457 486.32227 C 406.04522 484.53917 409.22675 482.72638 412.39258 480.875 C 414.35547 479.72286 416.32063 478.57119 418.28516 477.42188 C 419.35332 476.79697 420.38902 476.1905 421.42578 475.58398 C 435.91705 467.09565 450.40482 458.60225 465.00977 450.31055 C 467.55974 448.8645 470.10814 447.41609 472.65625 445.9668 C 473.57361 445.44499 474.46509 444.94006 475.35547 444.43359 C 477.01083 443.49707 478.6635 442.55801 480.31641 441.61719 C 482.04152 440.54939 483.80146 439.53615 485.57812 438.55664 C 487.77437 437.8451 489.81326 437.1535 491.7207 436.23828 C 493.62814 435.32307 495.40328 434.18385 497.07617 432.57422 C 497.46733 431.98674 497.8105 431.47199 498.10938 430.98242 L 498.10938 430.98047 C 498.40805 430.49103 498.66376 430.02639 498.88086 429.53711 L 498.88086 429.53516 C 499.09787 429.04584 499.27766 428.53219 499.42383 427.94531 L 499.42383 427.94336 C 500.15509 425.00502 500.06746 420.2323 499.83008 407.50391 C 499.76138 404.01885 499.74786 400.53643 499.75586 397.05078 C 499.77246 391.01039 499.75285 384.97169 499.68555 378.93164 C 499.58218 370.12423 499.52717 361.31776 499.50977 352.50977 C 499.48393 338.23575 499.41205 323.963 499.29297 309.68945 C 499.17594 295.77942 499.07688 281.86942 499.02148 267.95898 C 499.01838 267.07381 499.01472 266.2146 499.01172 265.35547 C 498.99482 261.0406 498.97694 256.72502 498.96094 252.41016 L 498.96094 252.4082 C 498.82653 215.85575 498.60201 179.30543 498.31055 142.75391 C 497.67833 142.37796 497.0648 142.01334 496.45117 141.64844 C 495.62642 141.17102 494.82588 140.70752 494.02539 140.24414 C 492.45697 139.3255 491.91008 139.00392 491.13477 138.62305 C 490.66895 138.35479 490.20212 138.08666 489.73633 137.81836 C 488.55412 137.13723 487.37175 136.45635 486.18945 135.77539 C 486.13375 135.74335 486.07914 135.71173 486.02344 135.67969 C 485.97111 135.63828 485.91398 135.59276 485.85352 135.54492 C 485.04544 135.08181 484.26088 134.63308 483.47656 134.18359 C 482.57425 133.65893 481.7 133.14989 480.82422 132.64062 C 479.36085 131.81234 479.36018 131.8119 477.92578 131 C 477.25585 130.61303 476.586 130.22672 475.91602 129.83984 C 473.02966 128.15791 470.15139 126.46261 467.28711 124.74219 C 464.95938 123.33516 462.62905 121.94227 460.27344 120.58203 C 459.52089 120.16047 458.79096 119.75097 458.06055 119.3418 C 456.75367 118.60722 456.75364 118.60872 455.47266 117.88867 C 452.21867 116.06395 448.9693 114.23245 445.72266 112.39453 C 445.13595 112.05119 444.54866 111.70634 443.96289 111.36133 C 441.47846 109.89716 438.99155 108.43835 436.5 106.98633 C 435.2487 106.25819 433.99803 105.52923 432.74805 104.79883 C 430.95382 103.73364 429.15974 102.6692 427.35547 101.62109 C 426.78616 101.29149 426.23423 100.97224 425.68164 100.65234 C 422.86871 99.000511 422.63972 98.865635 420.55078 97.957031 C 418.08486 96.523523 415.62277 95.087009 413.16211 93.644531 C 412.08996 92.989499 411.01052 92.344135 409.92383 91.703125 C 409.21291 91.285547 408.52204 90.879906 407.83203 90.474609 C 401.2903 86.627868 394.71538 82.843712 388.12109 79.087891 C 382.59861 75.944084 377.08637 72.786572 371.61719 69.550781 C 365.54476 65.952114 359.44299 62.413486 353.29492 58.945312 C 335.67245 49.02288 318.1642 38.907214 300.70117 28.707031 C 294.71754 25.209677 288.73234 21.72048 282.70508 18.298828 C 279.5866 16.531688 276.48359 14.748669 273.4043 12.914062 C 272.43743 12.334689 271.49898 11.773265 270.56055 11.210938 C 268.60881 10.044714 266.6579 8.8766688 264.70703 7.7089844 C 260.29229 5.0349229 255.8737 2.4469378 251.26953 0.11132812 C 250.65041 0.029589641 250.09221 -0.005970099 249.57617 0.001953125 z M 248.45508 58.691406 C 249.09457 58.691112 249.77792 58.906663 250.87305 59.25 C 253.41749 60.467266 255.87776 61.754406 258.33203 63.144531 C 259.2572 63.667407 260.18156 64.191748 261.13477 64.730469 C 262.11108 65.28712 263.08786 65.842497 264.09375 66.416016 C 265.10541 66.990344 266.11784 67.564518 267.16016 68.15625 C 273.23424 71.616184 279.27173 75.126566 285.24023 78.765625 C 288.69318 80.866329 292.17704 82.899373 295.69336 84.892578 C 296.55414 85.382311 297.41587 85.872379 298.30273 86.376953 C 299.99995 87.339927 301.70006 88.297543 303.4043 89.248047 C 304.16786 89.682225 304.93206 90.115164 305.71875 90.5625 C 306.4049 90.947516 307.08992 91.333785 307.79688 91.730469 C 308.28368 92.084077 308.76992 92.436457 309.27148 92.800781 L 309.27148 94.759766 L 307.53125 95.742188 C 297.00168 101.68315 286.47605 107.63154 275.9707 113.61523 C 275.12767 114.09368 274.28459 114.57151 273.41602 115.06445 C 269.4974 117.29953 265.6169 119.57124 261.79883 121.97461 L 259.76367 123.24609 C 258.53111 124.02199 257.30522 124.81073 256.08984 125.61328 C 253.61072 127.17287 252.0771 128.12969 249.10938 127.79297 C 246.62432 127.09378 244.65844 126.22833 242.4082 124.97461 C 241.23504 124.32607 241.23397 124.32571 240.03711 123.66406 C 238.79364 122.96225 238.79398 122.96208 237.52539 122.24609 C 236.65538 121.76117 235.78505 121.27695 234.88867 120.77734 C 228.79585 117.36559 222.75993 113.86409 216.75586 110.29883 C 207.83118 105.00135 198.79679 99.89018 189.77539 94.759766 L 189.77539 92.800781 C 191.60688 91.506131 191.60768 91.506519 194.19531 90.023438 C 195.15055 89.471283 196.10566 88.918494 197.08984 88.349609 C 198.13078 87.757842 199.17165 87.16634 200.24414 86.556641 C 201.30591 85.945303 202.36894 85.334942 203.46289 84.705078 C 206.73234 82.82514 210.0061 80.954461 213.2832 79.087891 C 216.03919 77.515054 218.79523 75.942747 221.55078 74.369141 C 223.2527 73.399245 224.95657 72.432256 226.66211 71.46875 C 230.57311 69.251776 234.43662 66.995196 238.22656 64.576172 L 240.26367 63.289062 C 241.49891 62.50233 242.72532 61.701743 243.93945 60.882812 C 246.44862 59.2898 247.38926 58.691897 248.45508 58.691406 z M 360.41406 123.31836 C 360.99777 123.321 361.65179 123.45045 362.60352 123.63867 C 363.84024 124.37351 363.83985 124.37337 365.10156 125.12305 C 366.2703 125.74177 367.44115 126.36058 368.61133 126.97656 C 369.99464 127.74311 371.37465 128.51331 372.75391 129.28711 C 373.50927 129.70866 374.26473 130.13012 375.04297 130.56445 C 383.69451 135.41838 392.24712 140.44137 400.80664 145.45508 C 405.90953 148.44285 411.03854 151.37938 416.17969 154.30078 C 422.63612 157.98966 429.04319 161.76899 435.45703 165.53125 C 436.92291 166.38919 436.92247 166.3884 438.41797 167.26367 C 439.73353 168.0352 439.73404 168.03515 441.07617 168.82227 C 443.14976 170.00189 445.24134 171.08201 447.37891 172.13867 C 447.91599 201.10241 448.33039 230.06552 448.57812 259.0332 C 448.60753 262.45837 448.63882 265.88343 448.66992 269.30859 C 448.67592 269.99043 448.68305 270.6725 448.68945 271.375 C 448.79155 282.39443 448.97506 293.41198 449.19141 304.42969 C 449.41179 315.74807 449.54048 327.06429 449.58984 338.38477 C 449.62044 344.73953 449.69179 351.08681 449.86328 357.43945 C 450.89942 397.32441 450.89994 397.32553 445.08008 404.76953 C 439.65434 409.82887 433.74547 412.34461 426.64648 414.24023 C 422.74289 415.37638 419.7679 417.21498 416.34961 419.39453 C 413.29086 421.15472 410.23005 422.91411 407.16992 424.67188 C 401.57068 427.89443 396.01486 431.16539 390.52539 434.57227 C 388.60901 435.61678 388.60934 435.61719 386.65039 435.61719 L 386.65039 207.40039 C 385.03425 206.75394 383.41902 206.10745 381.75391 205.44141 C 380.12701 204.55829 378.51851 203.64062 376.92578 202.69727 C 375.99658 202.15025 375.06674 201.60266 374.10938 201.03906 C 373.11689 200.451 372.12412 199.86369 371.10156 199.25781 C 362.96016 194.46809 354.78968 189.74417 346.55469 185.11719 C 338.68097 180.68723 330.85206 176.19153 323.08789 171.57227 C 320.19226 169.85225 317.2743 168.17784 314.3418 166.52148 C 313.56577 166.07855 312.78977 165.63605 311.99023 165.17969 C 310.49442 164.32679 308.99418 163.48145 307.48828 162.64648 C 305.74813 161.64753 304.07363 160.53691 302.41602 159.40625 L 302.41602 156.4668 L 305.18945 154.91797 C 319.48804 146.91275 333.66201 138.69501 347.77148 130.36133 C 349.02472 129.62157 350.28153 128.88725 351.54102 128.1582 C 352.77117 127.42629 353.98139 126.66003 355.17188 125.86523 C 358.18768 123.92057 359.1299 123.31255 360.41406 123.31836 z M 136.87305 123.35742 C 137.48507 123.32107 138.0852 123.47453 139.28516 123.78516 L 141.78125 125.12305 L 144.60938 126.60156 L 147.70117 128.32227 L 149.38867 129.25977 C 150.5641 129.9137 151.73821 130.56988 152.91211 131.22656 C 154.67459 132.21219 156.43951 133.19178 158.20508 134.17188 C 164.04925 137.42424 169.84068 140.74641 175.56055 144.21289 C 180.40183 147.12133 185.30917 149.91727 190.20508 152.73242 C 191.91013 153.71419 193.61546 154.69757 195.32031 155.67969 C 197.00631 156.65091 198.69276 157.62083 200.37891 158.5918 C 204.52114 160.97908 208.65862 163.37395 212.79492 165.77148 C 217.88656 168.72224 222.98115 171.66733 228.08008 174.60547 C 238.71421 180.73336 249.33771 186.87707 259.93164 193.07422 C 266.82961 197.10834 273.74904 201.09518 280.72852 204.98633 C 287.60833 208.83597 294.40144 212.83229 301.20508 216.81445 C 308.866 221.2942 316.55737 225.71801 324.27148 230.10547 L 326.66992 231.46875 L 328.75 232.65039 L 330.82031 233.8457 L 333.36328 234.96875 C 335.71728 236.78312 335.7177 236.78387 336.30664 239.77734 L 336.27344 243.50195 L 336.27539 245.55859 C 336.27239 247.80114 336.23557 250.04099 336.19727 252.2832 C 336.18827 253.83815 336.18058 255.39424 336.17578 256.94922 C 336.15708 261.04122 336.10888 265.13099 336.05469 269.22266 C 336.00449 273.39814 335.98173 277.57428 335.95703 281.75 C 335.90453 289.94265 335.82178 298.13399 335.71875 306.32617 C 332.28944 305.20793 329.1331 304.13888 326.02344 302.30273 L 323.90234 301.0625 L 321.63867 299.71484 L 319.21875 298.29688 C 317.48036 297.27702 315.7437 296.25459 314.00781 295.23047 C 309.11169 292.34425 304.20139 289.48047 299.29297 286.61523 L 296.24023 284.83008 C 290.21845 281.31666 284.17194 277.86038 278.08203 274.4668 C 271.07203 270.54551 264.15403 266.46626 257.22266 262.4082 C 251.6024 259.12233 245.96666 255.87293 240.28125 252.70117 C 232.99282 248.63248 225.80625 244.4008 218.61914 240.15625 C 205.37957 232.34992 192.08655 224.64415 178.68945 217.11133 C 169.63598 212.01047 160.66499 206.77257 151.69922 201.51953 L 149.0625 199.99219 C 147.58762 199.12129 146.12752 198.22354 144.69336 197.28711 C 142.06445 195.60665 140.19768 194.67847 137.05273 194.57422 C 132.48251 196.15015 128.52288 198.53978 124.39648 201.0332 C 122.72842 202.02307 121.06086 203.01247 119.39258 204.00195 L 117.17383 205.33594 C 115.9334 206.06818 114.66531 206.7562 113.37695 207.40039 L 112.39844 237.76367 L 117.29492 239.72266 C 118.83635 240.52638 120.36292 241.35914 121.875 242.2168 L 124.53906 243.72461 L 127.39648 245.35352 L 130.4082 247.06445 C 139.41021 252.19086 148.35627 257.41206 157.29688 262.64453 C 166.685 268.13529 176.11477 273.55407 185.53906 278.98242 C 188.86606 280.90038 192.19114 282.82184 195.51562 284.74414 C 209.04541 292.5711 209.04564 292.5702 222.65039 300.26562 C 229.14173 303.89432 235.55388 307.64996 241.95703 311.43164 C 256.35169 319.93281 270.80102 328.32914 285.375 336.51953 L 288.04102 338.01758 L 290.37109 339.32422 C 291.99407 340.25062 293.59535 341.21249 295.18359 342.19727 C 297.18618 343.35475 305.34566 348.06099 309.76953 349.95117 L 302.41602 347.46484 L 304.40625 348.19141 C 307.98064 349.70583 311.28803 351.54916 314.66016 353.46484 L 316.53516 354.51172 C 317.85483 355.25694 319.15878 356.03022 320.44727 356.82812 C 323.02576 358.34515 323.02503 358.34565 326.16602 359.41406 C 330.04261 361.1219 333.16683 362.61995 335.71875 366.07422 C 338.10564 373.2134 337.19247 381.28793 336.96094 388.69531 C 336.93714 390.92399 336.91895 393.15209 336.90625 395.38086 C 336.85775 401.23106 336.73293 407.07717 336.5918 412.92578 C 336.46125 418.90008 336.40395 424.87429 336.33984 430.84961 C 336.20352 442.56173 335.98702 454.27068 335.71875 465.98047 L 333.38867 467.31055 C 330.47646 468.9724 327.56409 470.63422 324.65234 472.29688 C 323.40343 473.00988 322.15538 473.72293 320.90625 474.43555 C 310.80648 480.1978 300.75226 486.03264 290.7168 491.90625 C 286.46591 494.39074 282.20505 496.85874 277.9375 499.31445 L 276.19727 500.31641 C 273.42169 501.91361 270.64329 503.50868 267.86523 505.10156 L 264.82812 506.84766 L 261.95508 508.49414 C 258.96156 510.2706 256.09045 512.19093 253.26172 514.21875 C 250.70995 515.27547 249.19795 514.76466 246.58594 513.97656 C 244.46822 512.97293 244.46891 512.97259 242.33203 511.72266 L 239.88867 510.30859 L 237.28125 508.77148 C 235.427 507.69488 233.57324 506.61917 231.71875 505.54297 L 228.84961 503.86914 C 224.45282 501.31215 220.02961 498.79937 215.60938 496.2832 C 205.22986 490.35702 194.89012 484.36635 184.55273 478.36719 C 175.80221 473.29014 167.03972 468.23547 158.25 463.22656 C 150.83982 459.00131 143.45432 454.7327 136.08789 450.43164 L 133.11523 448.69531 C 128.17309 445.80764 123.23313 442.91527 118.29688 440.01758 C 107.34166 433.59522 96.327157 427.30174 85.230469 421.12695 C 61.433211 407.84423 61.43286 407.84457 51.669922 401.33594 C 51.316563 398.46026 51.316165 398.46099 51.335938 394.73047 L 51.335938 392.67383 C 51.338037 390.42645 51.359803 388.17889 51.382812 385.93164 C 51.388312 384.37528 51.393584 382.82003 51.396484 381.26367 C 51.407704 377.16386 51.43626 373.06454 51.46875 368.96484 C 51.49879 364.78281 51.512534 360.60009 51.527344 356.41797 C 51.558874 348.20962 51.608143 340.00116 51.669922 331.79297 C 54.567 332.9376 57.351999 334.0909 60.076172 335.60352 L 62.070312 336.70898 L 64.220703 337.91406 L 66.523438 339.20117 C 73.991664 343.39157 81.384247 347.71326 88.773438 352.04102 C 99.209356 358.15168 109.70953 364.14456 120.22266 370.12109 C 126.76755 373.84208 133.2825 377.6057 139.76172 381.43945 C 146.2865 385.29763 152.86803 389.04946 159.47461 392.76562 C 172.76395 400.24469 185.93895 407.9175 199.0625 415.68359 C 207.85174 420.88288 216.70417 425.95614 225.61914 430.9375 C 229.93363 433.35767 234.208 435.80183 238.38281 438.45703 L 240.41602 439.74023 C 241.633 440.51733 242.84137 441.30973 244.03711 442.11914 C 246.48781 443.68116 247.91144 444.56048 250.82617 443.97852 L 253.44141 442.47461 L 255.42773 441.41211 C 257.76196 440.162 260.07234 438.87309 262.38086 437.57617 L 264.78711 436.23828 C 267.93672 434.47865 271.00769 432.72339 274.01172 430.7207 C 274.51375 427.58627 274.51253 427.58566 274.51172 423.88672 L 274.56641 421.85352 C 274.61951 419.7079 274.65287 417.56204 274.68555 415.41602 C 274.71805 413.96208 274.75006 412.50857 274.78516 411.05469 C 274.86846 407.48899 274.93423 403.92366 274.99023 400.35742 L 272.91992 399.58203 C 269.82588 398.28664 266.96953 396.75952 264.03711 395.13086 L 262.32031 394.17773 C 261.12843 393.5156 259.93838 392.85242 258.74805 392.1875 C 256.94286 391.17972 255.13493 390.17714 253.32617 389.17578 C 252.16222 388.52824 250.99754 387.88066 249.83398 387.23242 L 246.66406 385.4668 C 244.58186 384.25052 242.54627 382.95636 240.55273 381.59961 C 229.65817 375.49659 226.02688 372.63969 216.72656 367.3418 C 212.57065 365.81335 208.99779 363.74437 205.20312 361.48438 C 203.53905 360.50698 201.87555 359.52919 200.21094 358.55273 L 197.50781 356.96289 C 192.43804 353.99134 187.33974 351.06902 182.24609 348.13867 C 173.86411 343.30861 165.49977 338.45122 157.14844 333.56836 C 149.08836 328.85621 140.99853 324.19714 132.88477 319.57812 C 126.49978 315.93786 120.14976 312.24394 113.80664 308.53125 C 105.06363 303.41443 96.283574 298.3654 87.482422 293.34961 C 79.810546 288.97571 72.141978 284.59477 64.525391 280.125 L 62.587891 278.99219 C 60.899263 277.9963 59.222682 276.9802 57.546875 275.96289 L 54.447266 274.48242 C 51.418428 271.82478 51.250717 271.53739 50.962891 267.78125 C 50.945861 265.99731 50.962966 264.21323 51.003906 262.42969 L 51 259.47461 C 51.0041 256.25161 51.049663 253.03124 51.095703 249.80859 C 51.106663 247.57427 51.115224 245.33982 51.121094 243.10547 C 51.143534 237.2245 51.202568 231.34352 51.267578 225.46289 C 51.327698 219.46224 51.353196 213.4618 51.382812 207.46094 C 51.445842 195.68645 51.5463 183.91267 51.669922 172.13867 L 53.720703 170.99414 C 71.230642 161.23509 71.230543 161.23622 88.583984 151.20312 C 90.546493 150.05229 92.50961 148.90187 94.472656 147.75195 L 97.205078 146.14844 C 101.31795 143.7468 105.45841 141.39382 109.60938 139.05859 C 112.86696 137.20153 116.0594 135.24603 119.25781 133.28906 L 122.45898 131.35742 C 124.57979 130.07613 126.69207 128.77931 128.79492 127.46875 L 131.74609 125.69727 L 134.38867 124.07617 C 135.63681 123.62015 136.26102 123.39377 136.87305 123.35742 z M 309.77148 349.95117 L 312.05664 350.72461 C 311.5514 350.65243 310.75337 350.37062 309.77148 349.95117 z " />
</svg>
